<mxfile host="app.diagrams.net" modified="2023-05-04T11:33:38.865Z" agent="Mozilla/5.0 (X11; Linux x86_64; rv:107.0) Gecko/20100101 Firefox/107.0" etag="Ez3NfIP6iCV4yvnKoA6F" version="21.2.3" type="device" pages="3">
  <diagram name="5 states" id="LA_lHRx_i9pa7qlaqdg1">
    <mxGraphModel dx="1810" dy="442" grid="1" gridSize="10" guides="1" tooltips="1" connect="1" arrows="1" fold="1" page="1" pageScale="1" pageWidth="850" pageHeight="1100" math="0" shadow="0">
      <root>
        <mxCell id="0" />
        <mxCell id="1" parent="0" />
        <mxCell id="NkkZrImoyqQUztMNC-Ad-13" style="edgeStyle=orthogonalEdgeStyle;rounded=0;orthogonalLoop=1;jettySize=auto;html=1;exitX=0;exitY=0.75;exitDx=0;exitDy=0;entryX=1;entryY=0.75;entryDx=0;entryDy=0;strokeWidth=2;" edge="1" parent="1" source="NkkZrImoyqQUztMNC-Ad-2">
          <mxGeometry relative="1" as="geometry">
            <mxPoint x="130" y="125" as="targetPoint" />
          </mxGeometry>
        </mxCell>
        <mxCell id="NkkZrImoyqQUztMNC-Ad-14" style="edgeStyle=orthogonalEdgeStyle;rounded=0;orthogonalLoop=1;jettySize=auto;html=1;exitX=1;exitY=0.25;exitDx=0;exitDy=0;entryX=0;entryY=0.25;entryDx=0;entryDy=0;strokeWidth=2;" edge="1" parent="1" source="NkkZrImoyqQUztMNC-Ad-2" target="NkkZrImoyqQUztMNC-Ad-4">
          <mxGeometry relative="1" as="geometry" />
        </mxCell>
        <mxCell id="NkkZrImoyqQUztMNC-Ad-18" style="edgeStyle=orthogonalEdgeStyle;rounded=0;orthogonalLoop=1;jettySize=auto;html=1;exitX=0.75;exitY=1;exitDx=0;exitDy=0;entryX=0.75;entryY=0;entryDx=0;entryDy=0;strokeWidth=2;" edge="1" parent="1" source="NkkZrImoyqQUztMNC-Ad-2" target="NkkZrImoyqQUztMNC-Ad-5">
          <mxGeometry relative="1" as="geometry" />
        </mxCell>
        <mxCell id="NkkZrImoyqQUztMNC-Ad-2" value="&lt;div style=&quot;font-size: 13px;&quot; align=&quot;left&quot;&gt;&lt;font style=&quot;font-size: 13px;&quot;&gt;Coordinator: subscribed&lt;/font&gt;&lt;/div&gt;&lt;div style=&quot;font-size: 13px;&quot; align=&quot;left&quot;&gt;&lt;font style=&quot;font-size: 13px;&quot;&gt;Automator: idle&lt;br&gt;&lt;/font&gt;&lt;/div&gt;" style="rounded=1;whiteSpace=wrap;html=1;strokeWidth=2;" vertex="1" parent="1">
          <mxGeometry x="330" y="80" width="150" height="60" as="geometry" />
        </mxCell>
        <mxCell id="NkkZrImoyqQUztMNC-Ad-9" style="edgeStyle=orthogonalEdgeStyle;rounded=0;orthogonalLoop=1;jettySize=auto;html=1;exitX=1;exitY=0.25;exitDx=0;exitDy=0;entryX=0;entryY=0.25;entryDx=0;entryDy=0;strokeWidth=2;" edge="1" parent="1" target="NkkZrImoyqQUztMNC-Ad-2">
          <mxGeometry relative="1" as="geometry">
            <mxPoint x="130" y="95" as="sourcePoint" />
          </mxGeometry>
        </mxCell>
        <mxCell id="NkkZrImoyqQUztMNC-Ad-15" style="edgeStyle=orthogonalEdgeStyle;rounded=0;orthogonalLoop=1;jettySize=auto;html=1;exitX=0;exitY=0.75;exitDx=0;exitDy=0;entryX=1;entryY=0.75;entryDx=0;entryDy=0;strokeWidth=2;" edge="1" parent="1" source="NkkZrImoyqQUztMNC-Ad-4" target="NkkZrImoyqQUztMNC-Ad-2">
          <mxGeometry relative="1" as="geometry" />
        </mxCell>
        <mxCell id="WobAfhw36hHRxgOPanu9-1" style="edgeStyle=orthogonalEdgeStyle;rounded=0;orthogonalLoop=1;jettySize=auto;html=1;exitX=0.5;exitY=1;exitDx=0;exitDy=0;entryX=1;entryY=0.5;entryDx=0;entryDy=0;strokeWidth=2;" edge="1" parent="1" source="NkkZrImoyqQUztMNC-Ad-4" target="NkkZrImoyqQUztMNC-Ad-5">
          <mxGeometry relative="1" as="geometry" />
        </mxCell>
        <mxCell id="NkkZrImoyqQUztMNC-Ad-4" value="&lt;div style=&quot;font-size: 13px;&quot; align=&quot;left&quot;&gt;&lt;font style=&quot;font-size: 13px;&quot;&gt;Coordinator: recording&lt;/font&gt;&lt;/div&gt;&lt;div style=&quot;font-size: 13px;&quot; align=&quot;left&quot;&gt;&lt;font style=&quot;font-size: 13px;&quot;&gt;Automator: idle&lt;br&gt;&lt;/font&gt;&lt;/div&gt;" style="rounded=1;whiteSpace=wrap;html=1;strokeWidth=2;" vertex="1" parent="1">
          <mxGeometry x="680" y="80" width="150" height="60" as="geometry" />
        </mxCell>
        <mxCell id="NkkZrImoyqQUztMNC-Ad-17" style="edgeStyle=orthogonalEdgeStyle;rounded=0;orthogonalLoop=1;jettySize=auto;html=1;exitX=0.25;exitY=0;exitDx=0;exitDy=0;entryX=0.25;entryY=1;entryDx=0;entryDy=0;strokeWidth=2;" edge="1" parent="1" source="NkkZrImoyqQUztMNC-Ad-5" target="NkkZrImoyqQUztMNC-Ad-2">
          <mxGeometry relative="1" as="geometry" />
        </mxCell>
        <mxCell id="IDOb3vUTs1p0CABAw_Bh-3" style="edgeStyle=orthogonalEdgeStyle;rounded=0;orthogonalLoop=1;jettySize=auto;html=1;exitX=0;exitY=0.75;exitDx=0;exitDy=0;entryX=1;entryY=0.75;entryDx=0;entryDy=0;strokeWidth=2;" edge="1" parent="1" source="NkkZrImoyqQUztMNC-Ad-5" target="NkkZrImoyqQUztMNC-Ad-6">
          <mxGeometry relative="1" as="geometry" />
        </mxCell>
        <mxCell id="NkkZrImoyqQUztMNC-Ad-5" value="&lt;div style=&quot;font-size: 13px;&quot; align=&quot;left&quot;&gt;&lt;font style=&quot;font-size: 13px;&quot;&gt;Coordinator: subscribed&lt;/font&gt;&lt;/div&gt;&lt;div style=&quot;font-size: 13px;&quot; align=&quot;left&quot;&gt;&lt;font style=&quot;font-size: 13px;&quot;&gt;Automator: processing&lt;br&gt;&lt;/font&gt;&lt;/div&gt;" style="rounded=1;whiteSpace=wrap;html=1;strokeWidth=2;" vertex="1" parent="1">
          <mxGeometry x="330" y="340" width="150" height="60" as="geometry" />
        </mxCell>
        <mxCell id="NkkZrImoyqQUztMNC-Ad-19" style="edgeStyle=orthogonalEdgeStyle;rounded=0;orthogonalLoop=1;jettySize=auto;html=1;exitX=0.5;exitY=0;exitDx=0;exitDy=0;entryX=0.5;entryY=1;entryDx=0;entryDy=0;strokeWidth=2;" edge="1" parent="1" source="NkkZrImoyqQUztMNC-Ad-6">
          <mxGeometry relative="1" as="geometry">
            <mxPoint x="55" y="140" as="targetPoint" />
          </mxGeometry>
        </mxCell>
        <mxCell id="IDOb3vUTs1p0CABAw_Bh-4" style="edgeStyle=orthogonalEdgeStyle;rounded=0;orthogonalLoop=1;jettySize=auto;html=1;exitX=1;exitY=0.25;exitDx=0;exitDy=0;entryX=0;entryY=0.25;entryDx=0;entryDy=0;strokeWidth=2;" edge="1" parent="1" source="NkkZrImoyqQUztMNC-Ad-6" target="NkkZrImoyqQUztMNC-Ad-5">
          <mxGeometry relative="1" as="geometry" />
        </mxCell>
        <mxCell id="NkkZrImoyqQUztMNC-Ad-6" value="&lt;div style=&quot;font-size: 13px;&quot; align=&quot;left&quot;&gt;&lt;font style=&quot;font-size: 13px;&quot;&gt;Coordinator: idle&lt;/font&gt;&lt;/div&gt;&lt;div style=&quot;font-size: 13px;&quot; align=&quot;left&quot;&gt;&lt;font style=&quot;font-size: 13px;&quot;&gt;Automator: processing&lt;br&gt;&lt;/font&gt;&lt;/div&gt;" style="rounded=1;whiteSpace=wrap;html=1;strokeWidth=2;" vertex="1" parent="1">
          <mxGeometry x="-20" y="340" width="150" height="60" as="geometry" />
        </mxCell>
        <mxCell id="NkkZrImoyqQUztMNC-Ad-21" value="&lt;div style=&quot;font-size: 13px;&quot; align=&quot;left&quot;&gt;processing ends&lt;/div&gt;" style="text;html=1;strokeColor=none;fillColor=none;align=left;verticalAlign=middle;whiteSpace=wrap;rounded=0;" vertex="1" parent="1">
          <mxGeometry x="60" y="230" width="60" height="30" as="geometry" />
        </mxCell>
        <mxCell id="NkkZrImoyqQUztMNC-Ad-22" value="&lt;font style=&quot;font-size: 13px;&quot;&gt;configure&lt;/font&gt;" style="text;html=1;align=center;verticalAlign=middle;resizable=0;points=[];autosize=1;strokeColor=none;fillColor=none;" vertex="1" parent="1">
          <mxGeometry x="195" y="68" width="80" height="30" as="geometry" />
        </mxCell>
        <mxCell id="NkkZrImoyqQUztMNC-Ad-23" value="&lt;font style=&quot;font-size: 13px;&quot;&gt;deconfigure&lt;/font&gt;" style="text;html=1;align=center;verticalAlign=middle;resizable=0;points=[];autosize=1;strokeColor=none;fillColor=none;" vertex="1" parent="1">
          <mxGeometry x="190" y="120" width="90" height="30" as="geometry" />
        </mxCell>
        <mxCell id="NkkZrImoyqQUztMNC-Ad-24" value="&lt;div style=&quot;font-size: 13px;&quot; align=&quot;left&quot;&gt;&lt;font style=&quot;font-size: 13px;&quot;&gt;primary tracking start OR&lt;/font&gt;&lt;/div&gt;&lt;div style=&quot;font-size: 13px;&quot; align=&quot;left&quot;&gt;&lt;font style=&quot;font-size: 13px;&quot;&gt;commensal tracking start&lt;br&gt;&lt;/font&gt;&lt;/div&gt;" style="text;html=1;align=left;verticalAlign=middle;resizable=0;points=[];autosize=1;strokeColor=none;fillColor=none;" vertex="1" parent="1">
          <mxGeometry x="500" y="58" width="170" height="40" as="geometry" />
        </mxCell>
        <mxCell id="NkkZrImoyqQUztMNC-Ad-25" value="&lt;div style=&quot;font-size: 14px;&quot;&gt;primary tracking ends&lt;br&gt;&lt;/div&gt;" style="text;html=1;align=center;verticalAlign=middle;resizable=0;points=[];autosize=1;strokeColor=none;fillColor=none;strokeWidth=2;" vertex="1" parent="1">
          <mxGeometry x="490" y="120" width="160" height="30" as="geometry" />
        </mxCell>
        <mxCell id="NkkZrImoyqQUztMNC-Ad-26" value="&lt;div style=&quot;font-size: 13px;&quot; align=&quot;left&quot;&gt;processing ends&lt;/div&gt;" style="text;html=1;strokeColor=none;fillColor=none;align=left;verticalAlign=middle;whiteSpace=wrap;rounded=0;" vertex="1" parent="1">
          <mxGeometry x="294" y="230" width="60" height="30" as="geometry" />
        </mxCell>
        <mxCell id="NkkZrImoyqQUztMNC-Ad-32" value="&lt;div style=&quot;font-size: 13px;&quot; align=&quot;left&quot;&gt;&lt;font style=&quot;font-size: 13px;&quot;&gt;commensal recording ends OR&lt;br&gt;&lt;/font&gt;&lt;/div&gt;&lt;div style=&quot;font-size: 13px;&quot; align=&quot;left&quot;&gt;&lt;font style=&quot;font-size: 13px;&quot;&gt;commensal tracking ends &lt;br&gt;&lt;/font&gt;&lt;/div&gt;" style="text;html=1;align=center;verticalAlign=middle;resizable=0;points=[];autosize=1;strokeColor=none;fillColor=none;" vertex="1" parent="1">
          <mxGeometry x="515" y="330" width="200" height="40" as="geometry" />
        </mxCell>
        <mxCell id="IDOb3vUTs1p0CABAw_Bh-1" value="&lt;div style=&quot;font-size: 13px;&quot; align=&quot;left&quot;&gt;&lt;font style=&quot;font-size: 13px;&quot;&gt;primary mode&lt;br&gt;&lt;/font&gt;&lt;/div&gt;&lt;div style=&quot;font-size: 13px;&quot; align=&quot;left&quot;&gt;&lt;font style=&quot;font-size: 13px;&quot;&gt;ends&lt;/font&gt;&lt;/div&gt;" style="text;html=1;align=center;verticalAlign=middle;resizable=0;points=[];autosize=1;strokeColor=none;fillColor=none;" vertex="1" parent="1">
          <mxGeometry x="440" y="225" width="100" height="40" as="geometry" />
        </mxCell>
        <mxCell id="IDOb3vUTs1p0CABAw_Bh-2" value="&lt;font style=&quot;font-size: 13px;&quot;&gt;deconfigure&lt;/font&gt;" style="text;html=1;align=center;verticalAlign=middle;resizable=0;points=[];autosize=1;strokeColor=none;fillColor=none;" vertex="1" parent="1">
          <mxGeometry x="190" y="380" width="90" height="30" as="geometry" />
        </mxCell>
        <mxCell id="IDOb3vUTs1p0CABAw_Bh-5" value="&lt;font style=&quot;font-size: 13px;&quot;&gt;configure&lt;/font&gt;" style="text;html=1;align=center;verticalAlign=middle;resizable=0;points=[];autosize=1;strokeColor=none;fillColor=none;" vertex="1" parent="1">
          <mxGeometry x="195" y="330" width="80" height="30" as="geometry" />
        </mxCell>
        <mxCell id="WobAfhw36hHRxgOPanu9-4" value="&lt;div style=&quot;font-size: 13px;&quot; align=&quot;left&quot;&gt;&lt;font style=&quot;font-size: 13px;&quot;&gt;Coordinator: idle&lt;/font&gt;&lt;/div&gt;&lt;div style=&quot;font-size: 13px;&quot; align=&quot;left&quot;&gt;&lt;font style=&quot;font-size: 13px;&quot;&gt;Automator: idle&lt;br&gt;&lt;/font&gt;&lt;/div&gt;" style="rounded=1;whiteSpace=wrap;html=1;strokeWidth=2;" vertex="1" parent="1">
          <mxGeometry x="-20" y="80" width="150" height="60" as="geometry" />
        </mxCell>
        <mxCell id="WobAfhw36hHRxgOPanu9-5" value="&lt;font style=&quot;font-size: 13px;&quot;&gt;1&lt;/font&gt;" style="text;html=1;align=center;verticalAlign=middle;resizable=0;points=[];autosize=1;strokeColor=none;fillColor=none;" vertex="1" parent="1">
          <mxGeometry x="-27" y="115" width="30" height="30" as="geometry" />
        </mxCell>
        <mxCell id="WobAfhw36hHRxgOPanu9-7" value="2" style="text;html=1;align=center;verticalAlign=middle;resizable=0;points=[];autosize=1;strokeColor=none;fillColor=none;" vertex="1" parent="1">
          <mxGeometry x="322" y="115" width="30" height="30" as="geometry" />
        </mxCell>
        <mxCell id="WobAfhw36hHRxgOPanu9-8" value="3" style="text;html=1;align=center;verticalAlign=middle;resizable=0;points=[];autosize=1;strokeColor=none;fillColor=none;" vertex="1" parent="1">
          <mxGeometry x="672" y="115" width="30" height="30" as="geometry" />
        </mxCell>
        <mxCell id="WobAfhw36hHRxgOPanu9-9" value="4" style="text;html=1;align=center;verticalAlign=middle;resizable=0;points=[];autosize=1;strokeColor=none;fillColor=none;" vertex="1" parent="1">
          <mxGeometry x="322" y="376" width="30" height="30" as="geometry" />
        </mxCell>
        <mxCell id="WobAfhw36hHRxgOPanu9-10" value="5" style="text;html=1;align=center;verticalAlign=middle;resizable=0;points=[];autosize=1;strokeColor=none;fillColor=none;" vertex="1" parent="1">
          <mxGeometry x="-27" y="376" width="30" height="30" as="geometry" />
        </mxCell>
      </root>
    </mxGraphModel>
  </diagram>
  <diagram name="what we have now" id="79Gc4CBfs_FqJ-OXLVfp">
    <mxGraphModel dx="1263" dy="465" grid="1" gridSize="10" guides="1" tooltips="1" connect="1" arrows="1" fold="1" page="1" pageScale="1" pageWidth="1169" pageHeight="827" math="0" shadow="0">
      <root>
        <mxCell id="OntiuHvU8SqXoVunQdau-0" />
        <mxCell id="OntiuHvU8SqXoVunQdau-1" parent="OntiuHvU8SqXoVunQdau-0" />
        <mxCell id="ph3V2KkJFoEoTcBO6pBH-16" value="" style="rounded=0;whiteSpace=wrap;html=1;fillColor=none;strokeWidth=7;dashed=1;dashPattern=1 1;strokeColor=#999999;" vertex="1" parent="OntiuHvU8SqXoVunQdau-1">
          <mxGeometry x="670" y="220" width="460" height="380" as="geometry" />
        </mxCell>
        <mxCell id="ph3V2KkJFoEoTcBO6pBH-15" value="" style="rounded=0;whiteSpace=wrap;html=1;fillColor=none;strokeWidth=7;dashed=1;dashPattern=1 1;strokeColor=#999999;" vertex="1" parent="OntiuHvU8SqXoVunQdau-1">
          <mxGeometry x="10" y="220" width="640" height="380" as="geometry" />
        </mxCell>
        <mxCell id="OntiuHvU8SqXoVunQdau-2" style="edgeStyle=orthogonalEdgeStyle;rounded=0;orthogonalLoop=1;jettySize=auto;html=1;exitX=0;exitY=0.75;exitDx=0;exitDy=0;entryX=1;entryY=0.75;entryDx=0;entryDy=0;" edge="1" parent="OntiuHvU8SqXoVunQdau-1" source="OntiuHvU8SqXoVunQdau-5" target="OntiuHvU8SqXoVunQdau-7">
          <mxGeometry relative="1" as="geometry" />
        </mxCell>
        <mxCell id="4ix9AFTmZIm7uMH37-7O-1" style="edgeStyle=orthogonalEdgeStyle;rounded=0;orthogonalLoop=1;jettySize=auto;html=1;exitX=1;exitY=0.25;exitDx=0;exitDy=0;entryX=0;entryY=0.25;entryDx=0;entryDy=0;" edge="1" parent="OntiuHvU8SqXoVunQdau-1" source="OntiuHvU8SqXoVunQdau-5" target="OntiuHvU8SqXoVunQdau-10">
          <mxGeometry relative="1" as="geometry" />
        </mxCell>
        <mxCell id="ph3V2KkJFoEoTcBO6pBH-1" style="edgeStyle=orthogonalEdgeStyle;rounded=0;orthogonalLoop=1;jettySize=auto;html=1;exitX=1;exitY=0.75;exitDx=0;exitDy=0;" edge="1" parent="OntiuHvU8SqXoVunQdau-1" source="OntiuHvU8SqXoVunQdau-5">
          <mxGeometry relative="1" as="geometry">
            <mxPoint x="565" y="382" as="targetPoint" />
          </mxGeometry>
        </mxCell>
        <mxCell id="OntiuHvU8SqXoVunQdau-5" value="&lt;div align=&quot;left&quot;&gt;Mode: commensal&lt;br&gt;&lt;/div&gt;&lt;div align=&quot;left&quot;&gt;Coordinator: subscribed&lt;/div&gt;&lt;div align=&quot;left&quot;&gt;Automator: idle&lt;br&gt;&lt;/div&gt;" style="rounded=1;whiteSpace=wrap;html=1;" vertex="1" parent="OntiuHvU8SqXoVunQdau-1">
          <mxGeometry x="290" y="242" width="150" height="60" as="geometry" />
        </mxCell>
        <mxCell id="OntiuHvU8SqXoVunQdau-6" style="edgeStyle=orthogonalEdgeStyle;rounded=0;orthogonalLoop=1;jettySize=auto;html=1;exitX=1;exitY=0.25;exitDx=0;exitDy=0;entryX=0;entryY=0.25;entryDx=0;entryDy=0;" edge="1" parent="OntiuHvU8SqXoVunQdau-1" source="OntiuHvU8SqXoVunQdau-7" target="OntiuHvU8SqXoVunQdau-5">
          <mxGeometry relative="1" as="geometry" />
        </mxCell>
        <mxCell id="OntiuHvU8SqXoVunQdau-7" value="&lt;div align=&quot;left&quot;&gt;Coordinator: idle&lt;/div&gt;&lt;div align=&quot;left&quot;&gt;Automator: idle&lt;br&gt;&lt;/div&gt;" style="rounded=1;whiteSpace=wrap;html=1;" vertex="1" parent="OntiuHvU8SqXoVunQdau-1">
          <mxGeometry x="20" y="242" width="150" height="60" as="geometry" />
        </mxCell>
        <mxCell id="bhz2i3slEwTPsU9JG4jX-1" style="edgeStyle=orthogonalEdgeStyle;rounded=0;orthogonalLoop=1;jettySize=auto;html=1;exitX=0.5;exitY=1;exitDx=0;exitDy=0;entryX=0.5;entryY=0;entryDx=0;entryDy=0;" edge="1" parent="OntiuHvU8SqXoVunQdau-1" source="OntiuHvU8SqXoVunQdau-10">
          <mxGeometry relative="1" as="geometry">
            <mxPoint x="765" y="382" as="targetPoint" />
          </mxGeometry>
        </mxCell>
        <mxCell id="ph3V2KkJFoEoTcBO6pBH-3" style="edgeStyle=orthogonalEdgeStyle;rounded=0;orthogonalLoop=1;jettySize=auto;html=1;exitX=1;exitY=0.25;exitDx=0;exitDy=0;entryX=0;entryY=0.25;entryDx=0;entryDy=0;" edge="1" parent="OntiuHvU8SqXoVunQdau-1" source="OntiuHvU8SqXoVunQdau-10" target="ph3V2KkJFoEoTcBO6pBH-2">
          <mxGeometry relative="1" as="geometry" />
        </mxCell>
        <mxCell id="OntiuHvU8SqXoVunQdau-10" value="&lt;div align=&quot;left&quot;&gt;Mode: primary&lt;br&gt;&lt;/div&gt;&lt;div align=&quot;left&quot;&gt;Coordinator: recording&lt;br&gt;&lt;/div&gt;&lt;div align=&quot;left&quot;&gt;Automator: idle&lt;br&gt;&lt;/div&gt;" style="rounded=1;whiteSpace=wrap;html=1;" vertex="1" parent="OntiuHvU8SqXoVunQdau-1">
          <mxGeometry x="690" y="242" width="150" height="60" as="geometry" />
        </mxCell>
        <mxCell id="OntiuHvU8SqXoVunQdau-12" style="edgeStyle=orthogonalEdgeStyle;rounded=0;orthogonalLoop=1;jettySize=auto;html=1;exitX=0;exitY=0.75;exitDx=0;exitDy=0;entryX=1;entryY=0.75;entryDx=0;entryDy=0;" edge="1" parent="OntiuHvU8SqXoVunQdau-1" source="OntiuHvU8SqXoVunQdau-13" target="OntiuHvU8SqXoVunQdau-16">
          <mxGeometry relative="1" as="geometry" />
        </mxCell>
        <mxCell id="ph3V2KkJFoEoTcBO6pBH-0" style="edgeStyle=orthogonalEdgeStyle;rounded=0;orthogonalLoop=1;jettySize=auto;html=1;exitX=0.5;exitY=0;exitDx=0;exitDy=0;entryX=0.5;entryY=1;entryDx=0;entryDy=0;" edge="1" parent="OntiuHvU8SqXoVunQdau-1" source="OntiuHvU8SqXoVunQdau-13" target="OntiuHvU8SqXoVunQdau-5">
          <mxGeometry relative="1" as="geometry" />
        </mxCell>
        <mxCell id="OntiuHvU8SqXoVunQdau-13" value="&lt;div align=&quot;left&quot;&gt;Mode: commensal&lt;br&gt;&lt;/div&gt;&lt;div align=&quot;left&quot;&gt;Coordinator: subscribed&lt;/div&gt;&lt;div align=&quot;left&quot;&gt;Automator: processing&lt;br&gt;&lt;/div&gt;" style="rounded=1;whiteSpace=wrap;html=1;" vertex="1" parent="OntiuHvU8SqXoVunQdau-1">
          <mxGeometry x="290" y="522" width="150" height="60" as="geometry" />
        </mxCell>
        <mxCell id="OntiuHvU8SqXoVunQdau-14" style="edgeStyle=orthogonalEdgeStyle;rounded=0;orthogonalLoop=1;jettySize=auto;html=1;exitX=0.5;exitY=0;exitDx=0;exitDy=0;entryX=0.5;entryY=1;entryDx=0;entryDy=0;" edge="1" parent="OntiuHvU8SqXoVunQdau-1" source="OntiuHvU8SqXoVunQdau-16" target="OntiuHvU8SqXoVunQdau-7">
          <mxGeometry relative="1" as="geometry" />
        </mxCell>
        <mxCell id="OntiuHvU8SqXoVunQdau-15" style="edgeStyle=orthogonalEdgeStyle;rounded=0;orthogonalLoop=1;jettySize=auto;html=1;exitX=1;exitY=0.25;exitDx=0;exitDy=0;entryX=0;entryY=0.25;entryDx=0;entryDy=0;" edge="1" parent="OntiuHvU8SqXoVunQdau-1" source="OntiuHvU8SqXoVunQdau-16" target="OntiuHvU8SqXoVunQdau-13">
          <mxGeometry relative="1" as="geometry" />
        </mxCell>
        <mxCell id="OntiuHvU8SqXoVunQdau-16" value="&lt;div align=&quot;left&quot;&gt;Coordinator: idle&lt;/div&gt;&lt;div align=&quot;left&quot;&gt;Automator: processing&lt;br&gt;&lt;/div&gt;" style="rounded=1;whiteSpace=wrap;html=1;" vertex="1" parent="OntiuHvU8SqXoVunQdau-1">
          <mxGeometry x="20" y="522" width="150" height="60" as="geometry" />
        </mxCell>
        <mxCell id="OntiuHvU8SqXoVunQdau-17" value="processing ends" style="text;html=1;strokeColor=none;fillColor=none;align=center;verticalAlign=middle;whiteSpace=wrap;rounded=0;" vertex="1" parent="OntiuHvU8SqXoVunQdau-1">
          <mxGeometry x="20" y="397" width="60" height="30" as="geometry" />
        </mxCell>
        <mxCell id="OntiuHvU8SqXoVunQdau-18" value="configure" style="text;html=1;align=center;verticalAlign=middle;resizable=0;points=[];autosize=1;strokeColor=none;fillColor=none;" vertex="1" parent="OntiuHvU8SqXoVunQdau-1">
          <mxGeometry x="195" y="230" width="70" height="30" as="geometry" />
        </mxCell>
        <mxCell id="OntiuHvU8SqXoVunQdau-19" value="deconfigure" style="text;html=1;align=center;verticalAlign=middle;resizable=0;points=[];autosize=1;strokeColor=none;fillColor=none;" vertex="1" parent="OntiuHvU8SqXoVunQdau-1">
          <mxGeometry x="185" y="282" width="90" height="30" as="geometry" />
        </mxCell>
        <mxCell id="OntiuHvU8SqXoVunQdau-21" value="&lt;div&gt;primary track start&lt;br&gt;&lt;/div&gt;" style="text;html=1;align=center;verticalAlign=middle;resizable=0;points=[];autosize=1;strokeColor=none;fillColor=none;" vertex="1" parent="OntiuHvU8SqXoVunQdau-1">
          <mxGeometry x="465" y="230" width="120" height="30" as="geometry" />
        </mxCell>
        <mxCell id="OntiuHvU8SqXoVunQdau-22" value="processing ends" style="text;html=1;strokeColor=none;fillColor=none;align=center;verticalAlign=middle;whiteSpace=wrap;rounded=0;" vertex="1" parent="OntiuHvU8SqXoVunQdau-1">
          <mxGeometry x="300" y="397" width="60" height="30" as="geometry" />
        </mxCell>
        <mxCell id="OntiuHvU8SqXoVunQdau-25" value="deconfigure" style="text;html=1;align=center;verticalAlign=middle;resizable=0;points=[];autosize=1;strokeColor=none;fillColor=none;" vertex="1" parent="OntiuHvU8SqXoVunQdau-1">
          <mxGeometry x="185" y="562" width="90" height="30" as="geometry" />
        </mxCell>
        <mxCell id="OntiuHvU8SqXoVunQdau-26" value="configure" style="text;html=1;align=center;verticalAlign=middle;resizable=0;points=[];autosize=1;strokeColor=none;fillColor=none;" vertex="1" parent="OntiuHvU8SqXoVunQdau-1">
          <mxGeometry x="195" y="512" width="70" height="30" as="geometry" />
        </mxCell>
        <mxCell id="4ix9AFTmZIm7uMH37-7O-3" value="&lt;div&gt;primary &lt;br&gt;&lt;/div&gt;&lt;div&gt;track end&lt;br&gt;&lt;/div&gt;" style="text;html=1;align=center;verticalAlign=middle;resizable=0;points=[];autosize=1;strokeColor=none;fillColor=none;" vertex="1" parent="OntiuHvU8SqXoVunQdau-1">
          <mxGeometry x="865" y="220" width="70" height="40" as="geometry" />
        </mxCell>
        <mxCell id="ph3V2KkJFoEoTcBO6pBH-8" style="edgeStyle=orthogonalEdgeStyle;rounded=0;orthogonalLoop=1;jettySize=auto;html=1;exitX=0.5;exitY=1;exitDx=0;exitDy=0;" edge="1" parent="OntiuHvU8SqXoVunQdau-1" target="ph3V2KkJFoEoTcBO6pBH-7">
          <mxGeometry relative="1" as="geometry">
            <mxPoint x="765" y="442" as="sourcePoint" />
          </mxGeometry>
        </mxCell>
        <mxCell id="bhz2i3slEwTPsU9JG4jX-2" value="&lt;div&gt;commensal &lt;br&gt;&lt;/div&gt;&lt;div&gt;track start &lt;br&gt;&lt;/div&gt;" style="text;html=1;align=center;verticalAlign=middle;resizable=0;points=[];autosize=1;strokeColor=none;fillColor=none;" vertex="1" parent="OntiuHvU8SqXoVunQdau-1">
          <mxGeometry x="760" y="320" width="80" height="40" as="geometry" />
        </mxCell>
        <mxCell id="ph3V2KkJFoEoTcBO6pBH-9" style="edgeStyle=orthogonalEdgeStyle;rounded=0;orthogonalLoop=1;jettySize=auto;html=1;exitX=0.5;exitY=1;exitDx=0;exitDy=0;entryX=0.75;entryY=0;entryDx=0;entryDy=0;" edge="1" parent="OntiuHvU8SqXoVunQdau-1" target="ph3V2KkJFoEoTcBO6pBH-7">
          <mxGeometry relative="1" as="geometry">
            <mxPoint x="1035" y="442" as="sourcePoint" />
          </mxGeometry>
        </mxCell>
        <mxCell id="bhz2i3slEwTPsU9JG4jX-8" value="deconfigure" style="text;html=1;align=center;verticalAlign=middle;resizable=0;points=[];autosize=1;strokeColor=none;fillColor=none;" vertex="1" parent="OntiuHvU8SqXoVunQdau-1">
          <mxGeometry x="1030" y="330" width="90" height="30" as="geometry" />
        </mxCell>
        <mxCell id="bhz2i3slEwTPsU9JG4jX-10" value="Timer ends" style="text;html=1;align=center;verticalAlign=middle;resizable=0;points=[];autosize=1;strokeColor=none;fillColor=none;" vertex="1" parent="OntiuHvU8SqXoVunQdau-1">
          <mxGeometry x="865" y="460" width="80" height="30" as="geometry" />
        </mxCell>
        <mxCell id="bhz2i3slEwTPsU9JG4jX-9" value="Timer ends" style="text;html=1;align=center;verticalAlign=middle;resizable=0;points=[];autosize=1;strokeColor=none;fillColor=none;" vertex="1" parent="OntiuHvU8SqXoVunQdau-1">
          <mxGeometry x="690" y="460" width="80" height="30" as="geometry" />
        </mxCell>
        <mxCell id="hJvWcPy084a9PgI10yZF-2" style="edgeStyle=orthogonalEdgeStyle;rounded=0;orthogonalLoop=1;jettySize=auto;html=1;exitX=0.5;exitY=1;exitDx=0;exitDy=0;entryX=1;entryY=0.5;entryDx=0;entryDy=0;" edge="1" parent="OntiuHvU8SqXoVunQdau-1" target="OntiuHvU8SqXoVunQdau-13">
          <mxGeometry relative="1" as="geometry">
            <mxPoint x="565" y="442" as="sourcePoint" />
          </mxGeometry>
        </mxCell>
        <mxCell id="bhz2i3slEwTPsU9JG4jX-21" value="&lt;div&gt;commensal &lt;br&gt;&lt;/div&gt;&lt;div&gt;track starts&lt;/div&gt;" style="text;html=1;align=center;verticalAlign=middle;resizable=0;points=[];autosize=1;strokeColor=none;fillColor=none;" vertex="1" parent="OntiuHvU8SqXoVunQdau-1">
          <mxGeometry x="470" y="290" width="80" height="40" as="geometry" />
        </mxCell>
        <mxCell id="hJvWcPy084a9PgI10yZF-3" value="Timer ends" style="text;html=1;align=center;verticalAlign=middle;resizable=0;points=[];autosize=1;strokeColor=none;fillColor=none;" vertex="1" parent="OntiuHvU8SqXoVunQdau-1">
          <mxGeometry x="470" y="522" width="80" height="30" as="geometry" />
        </mxCell>
        <mxCell id="ph3V2KkJFoEoTcBO6pBH-4" style="edgeStyle=orthogonalEdgeStyle;rounded=0;orthogonalLoop=1;jettySize=auto;html=1;exitX=0;exitY=0.75;exitDx=0;exitDy=0;entryX=1;entryY=0.75;entryDx=0;entryDy=0;" edge="1" parent="OntiuHvU8SqXoVunQdau-1" source="ph3V2KkJFoEoTcBO6pBH-2" target="OntiuHvU8SqXoVunQdau-10">
          <mxGeometry relative="1" as="geometry" />
        </mxCell>
        <mxCell id="ph3V2KkJFoEoTcBO6pBH-6" style="edgeStyle=orthogonalEdgeStyle;rounded=0;orthogonalLoop=1;jettySize=auto;html=1;exitX=0.5;exitY=1;exitDx=0;exitDy=0;entryX=0.5;entryY=0;entryDx=0;entryDy=0;" edge="1" parent="OntiuHvU8SqXoVunQdau-1" source="ph3V2KkJFoEoTcBO6pBH-2">
          <mxGeometry relative="1" as="geometry">
            <mxPoint x="1035" y="382" as="targetPoint" />
          </mxGeometry>
        </mxCell>
        <mxCell id="ph3V2KkJFoEoTcBO6pBH-2" value="&lt;div align=&quot;left&quot;&gt;Mode: primary&lt;br&gt;&lt;/div&gt;&lt;div align=&quot;left&quot;&gt;Coordinator: subscribed&lt;/div&gt;&lt;div align=&quot;left&quot;&gt;Automator: idle&lt;br&gt;&lt;/div&gt;" style="rounded=1;whiteSpace=wrap;html=1;" vertex="1" parent="OntiuHvU8SqXoVunQdau-1">
          <mxGeometry x="960" y="242" width="150" height="60" as="geometry" />
        </mxCell>
        <mxCell id="ph3V2KkJFoEoTcBO6pBH-5" value="&lt;div&gt;primary &lt;br&gt;&lt;/div&gt;&lt;div&gt;track start&lt;br&gt;&lt;/div&gt;" style="text;html=1;align=center;verticalAlign=middle;resizable=0;points=[];autosize=1;strokeColor=none;fillColor=none;" vertex="1" parent="OntiuHvU8SqXoVunQdau-1">
          <mxGeometry x="860" y="282" width="80" height="40" as="geometry" />
        </mxCell>
        <mxCell id="ph3V2KkJFoEoTcBO6pBH-11" style="edgeStyle=orthogonalEdgeStyle;rounded=0;orthogonalLoop=1;jettySize=auto;html=1;exitX=1;exitY=0.5;exitDx=0;exitDy=0;entryX=0;entryY=0.5;entryDx=0;entryDy=0;" edge="1" parent="OntiuHvU8SqXoVunQdau-1" source="ph3V2KkJFoEoTcBO6pBH-7" target="ph3V2KkJFoEoTcBO6pBH-10">
          <mxGeometry relative="1" as="geometry" />
        </mxCell>
        <mxCell id="ph3V2KkJFoEoTcBO6pBH-7" value="&lt;div align=&quot;left&quot;&gt;Mode: primary&lt;br&gt;&lt;/div&gt;&lt;div align=&quot;left&quot;&gt;Coordinator: idle (primary)&lt;br&gt;&lt;/div&gt;&lt;div align=&quot;left&quot;&gt;Automator: processing&lt;br&gt;&lt;/div&gt;" style="rounded=1;whiteSpace=wrap;html=1;" vertex="1" parent="OntiuHvU8SqXoVunQdau-1">
          <mxGeometry x="690" y="522" width="150" height="60" as="geometry" />
        </mxCell>
        <mxCell id="ph3V2KkJFoEoTcBO6pBH-10" value="&lt;div align=&quot;left&quot;&gt;Mode: primary&lt;br&gt;&lt;/div&gt;&lt;div align=&quot;left&quot;&gt;Coordinator: idle&lt;/div&gt;&lt;div align=&quot;left&quot;&gt;Automator: paused&lt;br&gt;&lt;/div&gt;" style="rounded=1;whiteSpace=wrap;html=1;" vertex="1" parent="OntiuHvU8SqXoVunQdau-1">
          <mxGeometry x="960" y="522" width="150" height="60" as="geometry" />
        </mxCell>
        <mxCell id="ph3V2KkJFoEoTcBO6pBH-12" value="&lt;div&gt;Processing&lt;/div&gt;&lt;div&gt;ends&lt;br&gt;&lt;/div&gt;" style="text;html=1;align=center;verticalAlign=middle;resizable=0;points=[];autosize=1;strokeColor=none;fillColor=none;" vertex="1" parent="OntiuHvU8SqXoVunQdau-1">
          <mxGeometry x="855" y="517" width="80" height="40" as="geometry" />
        </mxCell>
        <mxCell id="ph3V2KkJFoEoTcBO6pBH-17" value="&lt;font style=&quot;font-size: 20px;&quot; color=&quot;#999999&quot;&gt;Commensal Mode&lt;/font&gt;" style="text;html=1;align=center;verticalAlign=middle;resizable=0;points=[];autosize=1;strokeColor=none;fillColor=none;" vertex="1" parent="OntiuHvU8SqXoVunQdau-1">
          <mxGeometry x="235" y="185" width="190" height="40" as="geometry" />
        </mxCell>
        <mxCell id="ph3V2KkJFoEoTcBO6pBH-18" value="&lt;font style=&quot;font-size: 20px;&quot; color=&quot;#999999&quot;&gt;Primary Mode&lt;/font&gt;" style="text;html=1;align=center;verticalAlign=middle;resizable=0;points=[];autosize=1;strokeColor=none;fillColor=none;" vertex="1" parent="OntiuHvU8SqXoVunQdau-1">
          <mxGeometry x="830" y="180" width="150" height="40" as="geometry" />
        </mxCell>
      </root>
    </mxGraphModel>
  </diagram>
  <diagram name="What we want" id="Bl5Eum8vfNgoP8onLjYe">
    <mxGraphModel dx="2581" dy="520" grid="1" gridSize="10" guides="1" tooltips="1" connect="1" arrows="1" fold="1" page="1" pageScale="1" pageWidth="1169" pageHeight="827" math="0" shadow="0">
      <root>
        <mxCell id="a4QZf5Gf2X46Yjk5LetW-0" />
        <mxCell id="a4QZf5Gf2X46Yjk5LetW-1" parent="a4QZf5Gf2X46Yjk5LetW-0" />
        <mxCell id="Vj2qeL3or8T4l77KM1jX-0" value="" style="rounded=0;whiteSpace=wrap;html=1;fillColor=none;strokeWidth=7;dashed=1;dashPattern=1 1;strokeColor=#999999;" vertex="1" parent="a4QZf5Gf2X46Yjk5LetW-1">
          <mxGeometry x="670" y="220" width="460" height="460" as="geometry" />
        </mxCell>
        <mxCell id="aCTxY_kmelIHBln1SLfc-0" value="" style="rounded=0;whiteSpace=wrap;html=1;fillColor=none;strokeWidth=7;dashed=1;dashPattern=1 1;strokeColor=#999999;" vertex="1" parent="a4QZf5Gf2X46Yjk5LetW-1">
          <mxGeometry x="-50" y="220" width="700" height="460" as="geometry" />
        </mxCell>
        <mxCell id="a4QZf5Gf2X46Yjk5LetW-2" style="edgeStyle=orthogonalEdgeStyle;rounded=0;orthogonalLoop=1;jettySize=auto;html=1;exitX=0;exitY=0.75;exitDx=0;exitDy=0;entryX=1;entryY=0.75;entryDx=0;entryDy=0;" edge="1" parent="a4QZf5Gf2X46Yjk5LetW-1" source="a4QZf5Gf2X46Yjk5LetW-5" target="a4QZf5Gf2X46Yjk5LetW-7">
          <mxGeometry relative="1" as="geometry" />
        </mxCell>
        <mxCell id="a4QZf5Gf2X46Yjk5LetW-3" style="edgeStyle=orthogonalEdgeStyle;rounded=0;orthogonalLoop=1;jettySize=auto;html=1;exitX=1;exitY=0.25;exitDx=0;exitDy=0;entryX=0;entryY=0.25;entryDx=0;entryDy=0;" edge="1" parent="a4QZf5Gf2X46Yjk5LetW-1" source="a4QZf5Gf2X46Yjk5LetW-5" target="a4QZf5Gf2X46Yjk5LetW-10">
          <mxGeometry relative="1" as="geometry" />
        </mxCell>
        <mxCell id="a4QZf5Gf2X46Yjk5LetW-4" style="edgeStyle=orthogonalEdgeStyle;rounded=0;orthogonalLoop=1;jettySize=auto;html=1;exitX=1;exitY=0.75;exitDx=0;exitDy=0;" edge="1" parent="a4QZf5Gf2X46Yjk5LetW-1" source="a4QZf5Gf2X46Yjk5LetW-5" target="a4QZf5Gf2X46Yjk5LetW-34">
          <mxGeometry relative="1" as="geometry" />
        </mxCell>
        <mxCell id="a4QZf5Gf2X46Yjk5LetW-5" value="&lt;div align=&quot;left&quot;&gt;&lt;br&gt;&lt;/div&gt;&lt;div align=&quot;left&quot;&gt;Coordinator: subscribed&lt;/div&gt;&lt;div align=&quot;left&quot;&gt;Automator: idle&lt;br&gt;&lt;/div&gt;" style="rounded=1;whiteSpace=wrap;html=1;" vertex="1" parent="a4QZf5Gf2X46Yjk5LetW-1">
          <mxGeometry x="290" y="242" width="150" height="60" as="geometry" />
        </mxCell>
        <mxCell id="a4QZf5Gf2X46Yjk5LetW-6" style="edgeStyle=orthogonalEdgeStyle;rounded=0;orthogonalLoop=1;jettySize=auto;html=1;exitX=1;exitY=0.25;exitDx=0;exitDy=0;entryX=0;entryY=0.25;entryDx=0;entryDy=0;" edge="1" parent="a4QZf5Gf2X46Yjk5LetW-1" source="a4QZf5Gf2X46Yjk5LetW-7" target="a4QZf5Gf2X46Yjk5LetW-5">
          <mxGeometry relative="1" as="geometry" />
        </mxCell>
        <mxCell id="a4QZf5Gf2X46Yjk5LetW-7" value="&lt;div align=&quot;left&quot;&gt;Coordinator: idle&lt;/div&gt;&lt;div align=&quot;left&quot;&gt;Automator: idle&lt;br&gt;&lt;/div&gt;" style="rounded=1;whiteSpace=wrap;html=1;" vertex="1" parent="a4QZf5Gf2X46Yjk5LetW-1">
          <mxGeometry x="20" y="242" width="150" height="60" as="geometry" />
        </mxCell>
        <mxCell id="a4QZf5Gf2X46Yjk5LetW-9" style="edgeStyle=orthogonalEdgeStyle;rounded=0;orthogonalLoop=1;jettySize=auto;html=1;exitX=1;exitY=0.25;exitDx=0;exitDy=0;entryX=0;entryY=0.25;entryDx=0;entryDy=0;" edge="1" parent="a4QZf5Gf2X46Yjk5LetW-1" source="a4QZf5Gf2X46Yjk5LetW-10" target="a4QZf5Gf2X46Yjk5LetW-39">
          <mxGeometry relative="1" as="geometry" />
        </mxCell>
        <mxCell id="a4QZf5Gf2X46Yjk5LetW-10" value="&lt;div align=&quot;left&quot;&gt;&lt;br&gt;&lt;/div&gt;&lt;div align=&quot;left&quot;&gt;Coordinator: subscribed&lt;br&gt;&lt;/div&gt;&lt;div align=&quot;left&quot;&gt;Automator: recording&lt;br&gt;&lt;/div&gt;" style="rounded=1;whiteSpace=wrap;html=1;" vertex="1" parent="a4QZf5Gf2X46Yjk5LetW-1">
          <mxGeometry x="690" y="242" width="150" height="60" as="geometry" />
        </mxCell>
        <mxCell id="a4QZf5Gf2X46Yjk5LetW-11" style="edgeStyle=orthogonalEdgeStyle;rounded=0;orthogonalLoop=1;jettySize=auto;html=1;exitX=0;exitY=0.75;exitDx=0;exitDy=0;entryX=1;entryY=0.75;entryDx=0;entryDy=0;" edge="1" parent="a4QZf5Gf2X46Yjk5LetW-1" source="a4QZf5Gf2X46Yjk5LetW-13" target="a4QZf5Gf2X46Yjk5LetW-16">
          <mxGeometry relative="1" as="geometry" />
        </mxCell>
        <mxCell id="a4QZf5Gf2X46Yjk5LetW-12" style="edgeStyle=orthogonalEdgeStyle;rounded=0;orthogonalLoop=1;jettySize=auto;html=1;exitX=0.5;exitY=0;exitDx=0;exitDy=0;entryX=0.5;entryY=1;entryDx=0;entryDy=0;" edge="1" parent="a4QZf5Gf2X46Yjk5LetW-1" source="a4QZf5Gf2X46Yjk5LetW-13" target="a4QZf5Gf2X46Yjk5LetW-5">
          <mxGeometry relative="1" as="geometry" />
        </mxCell>
        <mxCell id="a4QZf5Gf2X46Yjk5LetW-13" value="&lt;div align=&quot;left&quot;&gt;&lt;br&gt;&lt;/div&gt;&lt;div align=&quot;left&quot;&gt;Coordinator: subscribed&lt;/div&gt;&lt;div align=&quot;left&quot;&gt;Automator: processing&lt;br&gt;&lt;/div&gt;" style="rounded=1;whiteSpace=wrap;html=1;" vertex="1" parent="a4QZf5Gf2X46Yjk5LetW-1">
          <mxGeometry x="290" y="522" width="150" height="60" as="geometry" />
        </mxCell>
        <mxCell id="a4QZf5Gf2X46Yjk5LetW-14" style="edgeStyle=orthogonalEdgeStyle;rounded=0;orthogonalLoop=1;jettySize=auto;html=1;exitX=0.5;exitY=0;exitDx=0;exitDy=0;entryX=0.5;entryY=1;entryDx=0;entryDy=0;" edge="1" parent="a4QZf5Gf2X46Yjk5LetW-1" source="a4QZf5Gf2X46Yjk5LetW-16" target="a4QZf5Gf2X46Yjk5LetW-7">
          <mxGeometry relative="1" as="geometry" />
        </mxCell>
        <mxCell id="a4QZf5Gf2X46Yjk5LetW-15" style="edgeStyle=orthogonalEdgeStyle;rounded=0;orthogonalLoop=1;jettySize=auto;html=1;exitX=1;exitY=0.25;exitDx=0;exitDy=0;entryX=0;entryY=0.25;entryDx=0;entryDy=0;" edge="1" parent="a4QZf5Gf2X46Yjk5LetW-1" source="a4QZf5Gf2X46Yjk5LetW-16" target="a4QZf5Gf2X46Yjk5LetW-13">
          <mxGeometry relative="1" as="geometry" />
        </mxCell>
        <mxCell id="a4QZf5Gf2X46Yjk5LetW-16" value="&lt;div align=&quot;left&quot;&gt;&lt;br&gt;&lt;/div&gt;&lt;div align=&quot;left&quot;&gt;Coordinator: idle&lt;/div&gt;&lt;div align=&quot;left&quot;&gt;Automator: processing&lt;br&gt;&lt;/div&gt;" style="rounded=1;whiteSpace=wrap;html=1;" vertex="1" parent="a4QZf5Gf2X46Yjk5LetW-1">
          <mxGeometry x="20" y="522" width="150" height="60" as="geometry" />
        </mxCell>
        <mxCell id="a4QZf5Gf2X46Yjk5LetW-17" value="processing ends" style="text;html=1;strokeColor=none;fillColor=none;align=center;verticalAlign=middle;whiteSpace=wrap;rounded=0;" vertex="1" parent="a4QZf5Gf2X46Yjk5LetW-1">
          <mxGeometry x="20" y="397" width="60" height="30" as="geometry" />
        </mxCell>
        <mxCell id="a4QZf5Gf2X46Yjk5LetW-18" value="configure" style="text;html=1;align=center;verticalAlign=middle;resizable=0;points=[];autosize=1;strokeColor=none;fillColor=none;" vertex="1" parent="a4QZf5Gf2X46Yjk5LetW-1">
          <mxGeometry x="195" y="230" width="70" height="30" as="geometry" />
        </mxCell>
        <mxCell id="a4QZf5Gf2X46Yjk5LetW-19" value="deconfigure" style="text;html=1;align=center;verticalAlign=middle;resizable=0;points=[];autosize=1;strokeColor=none;fillColor=none;" vertex="1" parent="a4QZf5Gf2X46Yjk5LetW-1">
          <mxGeometry x="185" y="282" width="90" height="30" as="geometry" />
        </mxCell>
        <mxCell id="a4QZf5Gf2X46Yjk5LetW-20" value="&lt;div&gt;primary track start&lt;br&gt;&lt;/div&gt;" style="text;html=1;align=center;verticalAlign=middle;resizable=0;points=[];autosize=1;strokeColor=none;fillColor=none;" vertex="1" parent="a4QZf5Gf2X46Yjk5LetW-1">
          <mxGeometry x="465" y="230" width="120" height="30" as="geometry" />
        </mxCell>
        <mxCell id="a4QZf5Gf2X46Yjk5LetW-21" value="processing ends" style="text;html=1;strokeColor=none;fillColor=none;align=center;verticalAlign=middle;whiteSpace=wrap;rounded=0;" vertex="1" parent="a4QZf5Gf2X46Yjk5LetW-1">
          <mxGeometry x="300" y="397" width="60" height="30" as="geometry" />
        </mxCell>
        <mxCell id="a4QZf5Gf2X46Yjk5LetW-22" value="deconfigure" style="text;html=1;align=center;verticalAlign=middle;resizable=0;points=[];autosize=1;strokeColor=none;fillColor=none;" vertex="1" parent="a4QZf5Gf2X46Yjk5LetW-1">
          <mxGeometry x="185" y="562" width="90" height="30" as="geometry" />
        </mxCell>
        <mxCell id="a4QZf5Gf2X46Yjk5LetW-23" value="configure" style="text;html=1;align=center;verticalAlign=middle;resizable=0;points=[];autosize=1;strokeColor=none;fillColor=none;" vertex="1" parent="a4QZf5Gf2X46Yjk5LetW-1">
          <mxGeometry x="195" y="512" width="70" height="30" as="geometry" />
        </mxCell>
        <mxCell id="a4QZf5Gf2X46Yjk5LetW-24" value="&lt;div&gt;primary &lt;br&gt;&lt;/div&gt;&lt;div&gt;track end&lt;br&gt;&lt;/div&gt;" style="text;html=1;align=center;verticalAlign=middle;resizable=0;points=[];autosize=1;strokeColor=none;fillColor=none;" vertex="1" parent="a4QZf5Gf2X46Yjk5LetW-1">
          <mxGeometry x="865" y="220" width="70" height="40" as="geometry" />
        </mxCell>
        <mxCell id="-htKL9WoolYMN_w4cXPl-10" style="edgeStyle=orthogonalEdgeStyle;rounded=0;orthogonalLoop=1;jettySize=auto;html=1;exitX=0.5;exitY=1;exitDx=0;exitDy=0;entryX=0.75;entryY=1;entryDx=0;entryDy=0;" edge="1" parent="a4QZf5Gf2X46Yjk5LetW-1" source="a4QZf5Gf2X46Yjk5LetW-26" target="a4QZf5Gf2X46Yjk5LetW-5">
          <mxGeometry relative="1" as="geometry">
            <Array as="points">
              <mxPoint x="765" y="480" />
              <mxPoint x="402" y="480" />
            </Array>
          </mxGeometry>
        </mxCell>
        <mxCell id="a4QZf5Gf2X46Yjk5LetW-26" value="&lt;div align=&quot;left&quot;&gt;&lt;br&gt;&lt;/div&gt;&lt;div align=&quot;left&quot;&gt;Coordinator: subscribed&lt;/div&gt;&lt;div align=&quot;left&quot;&gt;Automator: processing&lt;br&gt;&lt;/div&gt;" style="rounded=1;whiteSpace=wrap;html=1;" vertex="1" parent="a4QZf5Gf2X46Yjk5LetW-1">
          <mxGeometry x="690" y="370" width="150" height="60" as="geometry" />
        </mxCell>
        <mxCell id="a4QZf5Gf2X46Yjk5LetW-27" value="&lt;div&gt;commensal &lt;br&gt;&lt;/div&gt;&lt;div&gt;track start &lt;br&gt;&lt;/div&gt;" style="text;html=1;align=center;verticalAlign=middle;resizable=0;points=[];autosize=1;strokeColor=none;fillColor=none;" vertex="1" parent="a4QZf5Gf2X46Yjk5LetW-1">
          <mxGeometry x="855" y="342" width="80" height="40" as="geometry" />
        </mxCell>
        <mxCell id="a4QZf5Gf2X46Yjk5LetW-30" value="deconfigure" style="text;html=1;align=center;verticalAlign=middle;resizable=0;points=[];autosize=1;strokeColor=none;fillColor=none;" vertex="1" parent="a4QZf5Gf2X46Yjk5LetW-1">
          <mxGeometry x="855" y="570" width="90" height="30" as="geometry" />
        </mxCell>
        <mxCell id="a4QZf5Gf2X46Yjk5LetW-33" style="edgeStyle=orthogonalEdgeStyle;rounded=0;orthogonalLoop=1;jettySize=auto;html=1;exitX=0.5;exitY=1;exitDx=0;exitDy=0;entryX=1;entryY=0.5;entryDx=0;entryDy=0;" edge="1" parent="a4QZf5Gf2X46Yjk5LetW-1" source="a4QZf5Gf2X46Yjk5LetW-34" target="a4QZf5Gf2X46Yjk5LetW-13">
          <mxGeometry relative="1" as="geometry" />
        </mxCell>
        <mxCell id="a4QZf5Gf2X46Yjk5LetW-34" value="&lt;div align=&quot;left&quot;&gt;&lt;br&gt;&lt;/div&gt;&lt;div align=&quot;left&quot;&gt;Coordinator: subscribed&lt;br&gt;&lt;/div&gt;&lt;div align=&quot;left&quot;&gt;Automator: recording&lt;br&gt;&lt;/div&gt;" style="rounded=1;whiteSpace=wrap;html=1;" vertex="1" parent="a4QZf5Gf2X46Yjk5LetW-1">
          <mxGeometry x="470" y="382" width="150" height="60" as="geometry" />
        </mxCell>
        <mxCell id="a4QZf5Gf2X46Yjk5LetW-35" value="&lt;div&gt;commensal &lt;br&gt;&lt;/div&gt;&lt;div&gt;track starts&lt;/div&gt;" style="text;html=1;align=center;verticalAlign=middle;resizable=0;points=[];autosize=1;strokeColor=none;fillColor=none;" vertex="1" parent="a4QZf5Gf2X46Yjk5LetW-1">
          <mxGeometry x="470" y="290" width="80" height="40" as="geometry" />
        </mxCell>
        <mxCell id="a4QZf5Gf2X46Yjk5LetW-36" value="recording ends" style="text;html=1;align=center;verticalAlign=middle;resizable=0;points=[];autosize=1;strokeColor=none;fillColor=none;" vertex="1" parent="a4QZf5Gf2X46Yjk5LetW-1">
          <mxGeometry x="460" y="522" width="100" height="30" as="geometry" />
        </mxCell>
        <mxCell id="-htKL9WoolYMN_w4cXPl-1" style="edgeStyle=orthogonalEdgeStyle;rounded=0;orthogonalLoop=1;jettySize=auto;html=1;exitX=0;exitY=0.75;exitDx=0;exitDy=0;entryX=1;entryY=0.75;entryDx=0;entryDy=0;" edge="1" parent="a4QZf5Gf2X46Yjk5LetW-1" source="a4QZf5Gf2X46Yjk5LetW-39" target="a4QZf5Gf2X46Yjk5LetW-10">
          <mxGeometry relative="1" as="geometry" />
        </mxCell>
        <mxCell id="-htKL9WoolYMN_w4cXPl-8" style="edgeStyle=orthogonalEdgeStyle;rounded=0;orthogonalLoop=1;jettySize=auto;html=1;exitX=0.25;exitY=1;exitDx=0;exitDy=0;entryX=0.5;entryY=0;entryDx=0;entryDy=0;" edge="1" parent="a4QZf5Gf2X46Yjk5LetW-1" source="a4QZf5Gf2X46Yjk5LetW-39" target="a4QZf5Gf2X46Yjk5LetW-26">
          <mxGeometry relative="1" as="geometry" />
        </mxCell>
        <mxCell id="d7Bqp4J4JEaxXiVwsu9X-1" style="edgeStyle=orthogonalEdgeStyle;rounded=0;orthogonalLoop=1;jettySize=auto;html=1;exitX=0.75;exitY=1;exitDx=0;exitDy=0;entryX=0.5;entryY=1;entryDx=0;entryDy=0;" edge="1" parent="a4QZf5Gf2X46Yjk5LetW-1" source="a4QZf5Gf2X46Yjk5LetW-39" target="a4QZf5Gf2X46Yjk5LetW-16">
          <mxGeometry relative="1" as="geometry" />
        </mxCell>
        <mxCell id="a4QZf5Gf2X46Yjk5LetW-39" value="&lt;div align=&quot;left&quot;&gt;Mode: primary&lt;br&gt;&lt;/div&gt;&lt;div align=&quot;left&quot;&gt;Coordinator: subscribed&lt;/div&gt;&lt;div align=&quot;left&quot;&gt;Automator: idle&lt;br&gt;&lt;/div&gt;" style="rounded=1;whiteSpace=wrap;html=1;" vertex="1" parent="a4QZf5Gf2X46Yjk5LetW-1">
          <mxGeometry x="960" y="242" width="150" height="60" as="geometry" />
        </mxCell>
        <mxCell id="a4QZf5Gf2X46Yjk5LetW-40" value="&lt;div&gt;primary &lt;br&gt;&lt;/div&gt;&lt;div&gt;track start&lt;br&gt;&lt;/div&gt;" style="text;html=1;align=center;verticalAlign=middle;resizable=0;points=[];autosize=1;strokeColor=none;fillColor=none;" vertex="1" parent="a4QZf5Gf2X46Yjk5LetW-1">
          <mxGeometry x="860" y="282" width="80" height="40" as="geometry" />
        </mxCell>
        <mxCell id="a4QZf5Gf2X46Yjk5LetW-47" value="&lt;font style=&quot;font-size: 20px;&quot; color=&quot;#999999&quot;&gt;Commensal Mode&lt;/font&gt;" style="text;html=1;align=center;verticalAlign=middle;resizable=0;points=[];autosize=1;strokeColor=none;fillColor=none;" vertex="1" parent="a4QZf5Gf2X46Yjk5LetW-1">
          <mxGeometry x="235" y="185" width="190" height="40" as="geometry" />
        </mxCell>
        <mxCell id="a4QZf5Gf2X46Yjk5LetW-48" value="&lt;font style=&quot;font-size: 20px;&quot; color=&quot;#999999&quot;&gt;Primary Mode&lt;/font&gt;" style="text;html=1;align=center;verticalAlign=middle;resizable=0;points=[];autosize=1;strokeColor=none;fillColor=none;" vertex="1" parent="a4QZf5Gf2X46Yjk5LetW-1">
          <mxGeometry x="830" y="180" width="150" height="40" as="geometry" />
        </mxCell>
        <mxCell id="-htKL9WoolYMN_w4cXPl-7" value="&lt;div&gt;Processing&lt;/div&gt;&lt;div&gt;ends&lt;br&gt;&lt;/div&gt;" style="text;html=1;align=center;verticalAlign=middle;resizable=0;points=[];autosize=1;strokeColor=none;fillColor=none;" vertex="1" parent="a4QZf5Gf2X46Yjk5LetW-1">
          <mxGeometry x="680" y="482" width="80" height="40" as="geometry" />
        </mxCell>
      </root>
    </mxGraphModel>
  </diagram>
</mxfile>
